<?xml version="1.0" encoding="UTF-8"?>
<svg id="CONTENT" xmlns="http://www.w3.org/2000/svg" viewBox="0 0 481 406.85">
  <defs>
    <style>
      .cls-1 {
        fill: #ed7e23;
        fill-rule: evenodd;
      }

      .cls-1, .cls-2 {
        stroke-width: 0px;
      }

      .cls-2 {
        fill: #f4833a;
      }
    </style>
  </defs>
  <path class="cls-2" d="M97.19,291.29c-.78-.76-1.68-1.41-2.73-1.93-1.78-.87-3.79-1.3-6.03-1.3-2.75,0-5.23.67-7.43,2-2.2,1.33-3.93,3.14-5.18,5.43-1.25,2.29-1.87,4.87-1.87,7.75s.62,5.48,1.87,7.81c1.25,2.33,2.97,4.16,5.18,5.49,2.2,1.33,4.68,2,7.43,2,2.24,0,4.24-.44,6-1.33,1.03-.52,1.92-1.17,2.7-1.92v2.68c0,2.24-.76,4.03-2.29,5.37-1.52,1.33-3.56,2-6.1,2-2.07,0-3.84-.37-5.3-1.11-1.46-.74-2.78-1.81-3.97-3.21l-5.33,5.27c1.52,2.12,3.53,3.76,6,4.92,2.48,1.16,5.37,1.75,8.67,1.75s6.14-.63,8.64-1.87c2.5-1.25,4.46-3.02,5.87-5.3,1.42-2.29,2.13-4.93,2.13-7.94v-29.15h-8.26v2.59ZM96.65,307.28c-.61,1.16-1.48,2.06-2.6,2.7-1.12.63-2.47.95-4.03.95-1.44,0-2.74-.33-3.91-.98-1.16-.66-2.06-1.57-2.7-2.73-.63-1.16-.95-2.49-.95-3.97s.33-2.74.98-3.91c.66-1.16,1.55-2.07,2.67-2.73,1.12-.66,2.44-.98,3.97-.98s2.79.33,3.94.98c1.14.66,2.02,1.57,2.64,2.73.61,1.16.92,2.49.92,3.97s-.31,2.81-.92,3.97Z"/>
  <path class="cls-2" d="M136.31,291.62c-.85-.88-1.84-1.64-2.98-2.22-1.74-.89-3.68-1.33-5.84-1.33-2.84,0-5.37.7-7.59,2.1-2.22,1.4-3.97,3.3-5.24,5.72-1.27,2.41-1.9,5.14-1.9,8.19s.63,5.72,1.9,8.13c1.27,2.41,3.02,4.32,5.24,5.72,2.22,1.4,4.73,2.1,7.53,2.1,2.2,0,4.18-.44,5.94-1.33,1.14-.58,2.12-1.32,2.95-2.19v2.89h8.38v-30.67h-8.38v2.92ZM134.66,309.98c-1.44,1.57-3.32,2.35-5.65,2.35-1.48,0-2.82-.36-4-1.08-1.19-.72-2.11-1.69-2.76-2.92-.66-1.23-.98-2.67-.98-4.32s.33-3.03.98-4.25c.66-1.23,1.57-2.2,2.73-2.92,1.16-.72,2.51-1.08,4.03-1.08s2.92.35,4.06,1.05c1.14.7,2.05,1.68,2.73,2.95.68,1.27,1.02,2.71,1.02,4.32,0,2.37-.72,4.34-2.16,5.91Z"/>
  <path class="cls-2" d="M175.05,291.29c-.78-.76-1.68-1.41-2.73-1.93-1.78-.87-3.79-1.3-6.03-1.3-2.75,0-5.23.67-7.43,2-2.2,1.33-3.93,3.14-5.18,5.43-1.25,2.29-1.87,4.87-1.87,7.75s.62,5.48,1.87,7.81c1.25,2.33,2.97,4.16,5.18,5.49,2.2,1.33,4.68,2,7.43,2,2.24,0,4.24-.44,6-1.33,1.03-.52,1.92-1.17,2.7-1.92v2.68c0,2.24-.76,4.03-2.29,5.37-1.52,1.33-3.56,2-6.1,2-2.07,0-3.84-.37-5.3-1.11-1.46-.74-2.78-1.81-3.97-3.21l-5.33,5.27c1.52,2.12,3.52,3.76,6,4.92,2.48,1.16,5.37,1.75,8.67,1.75s6.14-.63,8.64-1.87c2.5-1.25,4.46-3.02,5.87-5.3,1.42-2.29,2.13-4.93,2.13-7.94v-29.15h-8.26v2.59ZM174.51,307.28c-.61,1.16-1.48,2.06-2.6,2.7-1.12.63-2.47.95-4.03.95-1.44,0-2.74-.33-3.91-.98-1.16-.66-2.06-1.57-2.7-2.73-.63-1.16-.95-2.49-.95-3.97s.33-2.74.98-3.91c.66-1.16,1.54-2.07,2.67-2.73,1.12-.66,2.44-.98,3.97-.98s2.79.33,3.94.98c1.14.66,2.02,1.57,2.64,2.73.61,1.16.92,2.49.92,3.97s-.31,2.81-.92,3.97Z"/>
  <path class="cls-2" d="M214.17,291.62c-.85-.88-1.84-1.64-2.98-2.22-1.74-.89-3.68-1.33-5.84-1.33-2.84,0-5.37.7-7.59,2.1-2.22,1.4-3.97,3.3-5.24,5.72-1.27,2.41-1.91,5.14-1.91,8.19s.63,5.72,1.91,8.13c1.27,2.41,3.02,4.32,5.24,5.72,2.22,1.4,4.73,2.1,7.53,2.1,2.2,0,4.18-.44,5.94-1.33,1.14-.58,2.12-1.32,2.95-2.19v2.89h8.38v-30.67h-8.38v2.92ZM212.52,309.98c-1.44,1.57-3.32,2.35-5.65,2.35-1.48,0-2.82-.36-4-1.08-1.19-.72-2.11-1.69-2.76-2.92-.66-1.23-.98-2.67-.98-4.32s.33-3.03.98-4.25c.66-1.23,1.57-2.2,2.73-2.92,1.16-.72,2.51-1.08,4.03-1.08s2.92.35,4.06,1.05c1.14.7,2.05,1.68,2.73,2.95.68,1.27,1.02,2.71,1.02,4.32,0,2.37-.72,4.34-2.16,5.91Z"/>
  <path class="cls-2" d="M239.95,295.62c.63-.38,1.59-.57,2.86-.57s2.55.27,3.72.79c1.16.53,2.21,1.34,3.14,2.45l5.02-5.08c-1.36-1.78-3.06-3.1-5.11-3.97-2.05-.87-4.35-1.3-6.89-1.3s-4.51.39-6.29,1.17c-1.78.78-3.15,1.91-4.13,3.37-.97,1.46-1.46,3.16-1.46,5.11s.38,3.39,1.14,4.57c.76,1.19,1.72,2.11,2.89,2.76,1.16.66,2.4,1.18,3.71,1.56,1.31.38,2.55.74,3.72,1.08,1.16.34,2.13.73,2.89,1.17.76.44,1.14,1.09,1.14,1.94,0,.72-.36,1.28-1.08,1.68-.72.4-1.76.6-3.11.6-1.65,0-3.18-.3-4.57-.89-1.4-.59-2.6-1.5-3.62-2.73l-5.02,5.02c1.02,1.19,2.22,2.21,3.62,3.08,1.4.87,2.93,1.52,4.6,1.97,1.67.44,3.4.67,5.18.67,3.68,0,6.6-.88,8.76-2.64,2.16-1.76,3.24-4.14,3.24-7.14,0-1.86-.37-3.39-1.11-4.57-.74-1.18-1.69-2.14-2.86-2.86-1.16-.72-2.39-1.28-3.68-1.68-1.29-.4-2.53-.77-3.71-1.11-1.19-.34-2.14-.71-2.86-1.11-.72-.4-1.08-.98-1.08-1.75,0-.68.32-1.21.95-1.59Z"/>
  <path class="cls-2" d="M272.18,296.86c1.21-.7,2.57-1.05,4.1-1.05,1.35,0,2.59.23,3.71.7,1.12.47,2.06,1.16,2.83,2.1l5.46-5.46c-1.52-1.69-3.3-2.97-5.33-3.84-2.03-.87-4.25-1.3-6.67-1.3-3.13,0-5.95.7-8.45,2.1-2.5,1.4-4.47,3.31-5.91,5.75-1.44,2.43-2.16,5.18-2.16,8.22s.72,5.66,2.16,8.1c1.44,2.43,3.41,4.36,5.91,5.78,2.5,1.42,5.29,2.13,8.38,2.13,2.45,0,4.71-.46,6.76-1.37,2.05-.91,3.82-2.21,5.3-3.91l-5.33-5.4c-.85.93-1.82,1.64-2.92,2.13-1.1.49-2.35.73-3.75.73-1.52,0-2.89-.36-4.1-1.08-1.21-.72-2.15-1.69-2.83-2.92-.68-1.23-1.02-2.65-1.02-4.26s.34-3.03,1.02-4.25c.68-1.23,1.62-2.19,2.83-2.89Z"/>
  <path class="cls-2" d="M316.79,289.97c-2.29-1.31-4.87-1.97-7.75-1.97-3.05,0-5.8.7-8.26,2.1-2.46,1.4-4.39,3.3-5.81,5.72-1.42,2.41-2.13,5.14-2.13,8.19s.72,5.84,2.16,8.26c1.44,2.41,3.42,4.32,5.94,5.72,2.52,1.4,5.39,2.1,8.61,2.1,2.5,0,4.8-.44,6.92-1.33,2.12-.89,3.96-2.22,5.53-4l-4.95-4.95c-.93,1.1-2.03,1.91-3.3,2.41-1.27.51-2.69.76-4.25.76-1.74,0-3.26-.36-4.57-1.08-1.31-.72-2.32-1.77-3.02-3.14-.28-.54-.48-1.14-.65-1.75l22.4-.06c.17-.68.27-1.3.32-1.87.04-.57.06-1.13.06-1.68,0-2.96-.63-5.61-1.9-7.94-1.27-2.33-3.05-4.15-5.33-5.46ZM304.66,296.07c1.23-.72,2.67-1.08,4.32-1.08,1.57,0,2.88.32,3.94.95,1.06.64,1.88,1.57,2.48,2.79.28.59.5,1.25.66,1.98l-14.8.04c.15-.57.34-1.11.58-1.61.66-1.33,1.6-2.36,2.83-3.08Z"/>
  <path class="cls-2" d="M351.43,288.8c-1.16-.49-2.51-.73-4.03-.73-3.43,0-6.06,1.09-7.87,3.27-.02.03-.04.06-.06.08v-2.72h-8.32v30.67h8.32v-16.89c0-2.33.56-4.04,1.68-5.14,1.12-1.1,2.57-1.65,4.35-1.65.85,0,1.6.12,2.25.35.66.23,1.22.62,1.68,1.17l5.21-6.03c-.97-1.1-2.04-1.89-3.21-2.38Z"/>
  <path class="cls-2" d="M363.66,274.22c-1.36,0-2.48.47-3.37,1.4-.89.93-1.33,2.05-1.33,3.37s.44,2.49,1.33,3.4,2.01,1.37,3.37,1.37,2.53-.46,3.4-1.37c.87-.91,1.3-2.04,1.3-3.4s-.43-2.43-1.3-3.37c-.87-.93-2-1.4-3.4-1.4Z"/>
  <rect class="cls-2" x="359.4" y="288.7" width="8.45" height="30.67"/>
  <path class="cls-2" d="M398.78,288.7v2.92c-.85-.88-1.84-1.64-2.98-2.22-1.74-.89-3.68-1.33-5.84-1.33-2.84,0-5.37.7-7.59,2.1-2.22,1.4-3.97,3.3-5.24,5.72-1.27,2.41-1.91,5.14-1.91,8.19s.64,5.72,1.91,8.13c1.27,2.41,3.02,4.32,5.24,5.72,2.22,1.4,4.73,2.1,7.53,2.1,2.2,0,4.18-.44,5.94-1.33,1.14-.58,2.12-1.32,2.95-2.19v2.89h8.38v-30.67h-8.38ZM397.13,309.98c-1.44,1.57-3.32,2.35-5.65,2.35-1.48,0-2.82-.36-4-1.08-1.19-.72-2.11-1.69-2.76-2.92-.66-1.23-.98-2.67-.98-4.32s.33-3.03.98-4.25c.66-1.23,1.57-2.2,2.73-2.92,1.16-.72,2.51-1.08,4.03-1.08s2.92.35,4.06,1.05c1.14.7,2.05,1.68,2.73,2.95.68,1.27,1.02,2.71,1.02,4.32,0,2.37-.72,4.34-2.16,5.91Z"/>
  <g>
    <path class="cls-1" d="M320.89,73.88c23.65,0,42.81,19.17,42.81,42.81s-19.17,42.81-42.81,42.81-42.81-19.17-42.81-42.81,19.17-42.81,42.81-42.81"/>
    <path class="cls-1" d="M407.16,116.04l-19.37-10.95c-1.71,5.11-8.23,22.6-9.99,26.3-10.11,21.27-31.79,35.97-56.91,35.97s-45.83-14.05-56.22-34.56c-2.08-4.11-8.97-22.6-10.68-27.71l-19.37,10.95v.02c26.23,26.44,42.43,62.83,42.43,103.01,0,15.36-2.37,30.17-6.76,44.08h101.2c-4.39-13.91-6.76-28.72-6.76-44.08,0-40.18,16.2-76.58,42.43-103.01v-.02Z"/>
  </g>
</svg>