<svg width="154" height="94" viewBox="0 0 154 94" fill="none" xmlns="http://www.w3.org/2000/svg">
<path fill-rule="evenodd" clip-rule="evenodd" d="M79.2004 1.83586C71.9162 -0.80452 70.1961 -0.647291 70.3117 7.45866C70.4327 15.9233 74.0815 24.9428 80.6941 29.7484C108.015 49.6034 130.199 23.4763 129.337 12.4953L125.975 11.1724C104.964 6.7073 118.467 11.7367 107.325 20.4606C103.934 23.1161 98.5652 24.504 93.2009 23.2783C79.7817 20.2119 80.0542 5.81419 79.2004 1.83586Z" fill="#FBB814"/>
<path fill-rule="evenodd" clip-rule="evenodd" d="M139.904 63.4584C130.234 46.4112 102.552 43.0853 90.9246 62.0264C82.5631 75.6474 85.6551 100.227 95.9646 91.6979C98.9742 89.208 96.1256 86.4463 95.5968 82.7612C95.0703 79.0906 95.8833 75.4134 97.295 72.4299C99.6436 67.4666 105.001 62.4092 112.333 62.0029C117.784 61.7009 122.298 63.6742 125.665 67.4598C127.645 69.6859 126.072 69.161 128.427 70.5439L137.07 65.5493C137.821 65.0912 137.864 65.1161 138.733 64.474C139.443 63.9494 139.474 63.884 139.904 63.4584Z" fill="#C1D8DC"/>
<path fill-rule="evenodd" clip-rule="evenodd" d="M53.9158 20.9511C55.1854 17.7559 54.7772 11.5477 53.7635 7.88719C49.7962 6.03296 32.9656 8.56903 26.6519 9.02673C21.8216 9.3771 17.1441 10.0219 12.335 10.2853C7.96435 10.5246 1.43446 9.70477 0.500916 14.2863C-1.6965 25.0667 10.6728 22.1825 23.6713 21.9973C30.4794 21.9002 48.9306 22.2604 53.9158 20.9511Z" fill="#8CD1D7"/>
<path fill-rule="evenodd" clip-rule="evenodd" d="M50.3332 72.7923C50.4133 68.7327 46.5416 65.7295 44.1877 63.5971L28.003 49.0962C25.707 47.3992 23.9895 47.6861 22.3662 49.4847C14.9489 57.7029 21.8961 60.1445 29.1248 66.6393C30.7367 68.0872 31.0512 69.1099 32.5883 70.5333C34.1376 71.968 35.3376 72.3244 37.1113 74.0196C40.4002 77.1622 45.0158 82.3931 50.3332 72.7923Z" fill="#63BC75"/>
<path fill-rule="evenodd" clip-rule="evenodd" d="M138.954 22.7899C139.685 26.043 143.528 29.8728 147.472 29.2053C150.73 28.6539 153.919 24.8747 153.612 20.8714C152.888 11.4351 136.708 12.7787 138.954 22.7899Z" fill="#EF7276"/>
</svg>
