<svg width="153" height="84" viewBox="0 0 153 84" fill="none" xmlns="http://www.w3.org/2000/svg">
<path fill-rule="evenodd" clip-rule="evenodd" d="M102.279 81.1258C101.338 73.396 102.671 68.8394 106.38 64.1463C108.752 61.1435 114.632 57.4808 120.691 57.1349C127.244 56.7608 132.704 59.1048 136.636 62.4992C139.991 65.3958 141.791 67.5097 143.552 71.592L145.36 75.226L152.472 74.2188C152.696 65.1683 144.849 56.6062 140.677 53.1229C134.395 47.8777 125.28 44.2985 114.697 45.8111C109.899 46.4967 105.837 48.1892 102.366 50.1405C100.605 51.1304 98.5693 52.6282 97.336 53.7889C89.4606 61.199 84.9943 70.875 86.2102 83.6733C90.401 83.7538 99.1184 82.6755 102.279 81.1258Z" fill="#FAAF43"/>
<path fill-rule="evenodd" clip-rule="evenodd" d="M56.13 0.535767C51.7911 22.0674 61.667 37.1171 78.0033 42.4795C97.3979 48.8461 117.287 35.1476 120.13 20.5677L104.586 15.802C99.9287 39.7801 60.9625 35.9859 63.6766 3.1221L56.13 0.535767Z" fill="#F5843A"/>
<path fill-rule="evenodd" clip-rule="evenodd" d="M14.0885 61.2153C14.8538 60.2689 14.4687 60.7099 15.1581 59.601L38.0888 23.8667C39.8879 21.2116 45.0549 13.6163 46.0361 10.8629C43.4497 9.39379 39.8679 6.28513 37.3156 5.24878C34.6389 9.14698 31.3027 13.2432 28.1925 17.2975C24.9459 21.5295 22.0644 25.4953 19.0128 29.4593L0.615234 53.7911C0.705943 53.9272 0.855609 54.0965 0.924019 54.1717L12.6829 62.6258L14.0885 61.2153Z" fill="#F5843A"/>
<path fill-rule="evenodd" clip-rule="evenodd" d="M37.6202 53.598C38.7518 55.0456 58.964 78.4072 61.545 79.7928C64.1351 76.8901 70.2822 71.9249 71.6549 68.2032C67.7196 66.1665 55.9445 54.9213 51.2265 51.254C48.9244 49.4644 47.0804 47.7091 44.838 46.0261L37.6202 53.598Z" fill="#E14949"/>
<path fill-rule="evenodd" clip-rule="evenodd" d="M136.929 7.05279C127.699 11.5497 133.392 23.4321 142.12 20.5718C151.556 17.4794 145.753 2.75395 136.929 7.05279Z" fill="#E14949"/>
</svg>
