<svg width="186" height="81" viewBox="0 0 186 81" fill="none" xmlns="http://www.w3.org/2000/svg">
<path fill-rule="evenodd" clip-rule="evenodd" d="M166.743 44.985L154.017 44C153.716 55.9444 157.425 63.5503 162.738 70.1068C165.637 73.6847 176.942 82.1244 185.012 80.8749L186 68.0614C174.029 66.6093 167.091 58.0007 166.743 44.985Z" fill="#5989BE"/>
<path fill-rule="evenodd" clip-rule="evenodd" d="M116.745 27.2907C119.183 26.106 122.612 25.7846 125 24.7172L124.53 12.2439C116.461 10.4474 104.411 19.052 101.375 22.445C96.3057 28.1116 91.9876 36.8153 92 48L104.59 47.4826C106.273 39.6833 106.741 32.1531 116.745 27.2907Z" fill="#5989BE"/>
<path fill-rule="evenodd" clip-rule="evenodd" d="M153.385 5.84729C149.364 -4.97215 134.037 0.589691 137.507 11.426C140.795 21.6878 157.372 16.5761 153.385 5.84729Z" fill="#5989BE"/>
<path fill-rule="evenodd" clip-rule="evenodd" d="M118.127 52.3101C108.36 54.511 110.576 71.2755 122.596 68.7395C132.701 66.6072 130.578 49.5041 118.127 52.3101Z" fill="#5989BE"/>
<path fill-rule="evenodd" clip-rule="evenodd" d="M16.8173 -6.19947e-07C13.3656 1.89834 7.43739 10.7162 5.07336 15.8237C-2.6917 32.5988 -1.6608 53.9179 8.97934 69.1613C10.9719 72.0163 13.2663 74.3853 14.9775 77L30.2226 62.7208C25.8012 55.7186 20.6471 51.1896 20.8933 38.3345C21.127 26.1326 26.199 21.5201 31 14.6584C28.0876 10.1304 23.3577 6.62333 20.2643 3.57204C18.9216 2.24745 18.1764 1.25093 16.8173 -6.19947e-07Z" fill="#5989BD"/>
<path fill-rule="evenodd" clip-rule="evenodd" d="M59.3937 27.4141C41.8664 31.4137 48.0609 56.6736 66.3985 52.5458C72.9498 51.0711 78.5732 44.719 76.5993 36.9133C75.0753 30.8863 68.0772 25.4324 59.3937 27.4141Z" fill="#5989BD"/>
</svg>
