<?xml version="1.0" encoding="UTF-8"?>
<svg id="CONTENT" xmlns="http://www.w3.org/2000/svg" viewBox="0 0 481.19 442.67">
  <defs>
    <style>
      .cls-1 {
        fill-rule: evenodd;
      }

      .cls-1, .cls-2 {
        fill: #fff;
        stroke-width: 0px;
      }
    </style>
  </defs>
  <g>
    <path class="cls-2" d="M97.23,291.32c-.78-.76-1.68-1.41-2.73-1.93-1.78-.87-3.79-1.3-6.03-1.3-2.75,0-5.23.67-7.43,2-2.2,1.33-3.93,3.14-5.18,5.43-1.25,2.29-1.87,4.87-1.87,7.75s.62,5.48,1.87,7.81c1.25,2.33,2.97,4.16,5.18,5.49,2.2,1.33,4.68,2,7.43,2,2.24,0,4.24-.44,6-1.33,1.03-.52,1.92-1.17,2.7-1.92v2.68c0,2.24-.76,4.03-2.29,5.37-1.52,1.33-3.56,2-6.1,2-2.07,0-3.84-.37-5.3-1.11-1.46-.74-2.78-1.81-3.97-3.21l-5.33,5.27c1.52,2.12,3.53,3.76,6,4.92,2.48,1.16,5.37,1.75,8.67,1.75s6.14-.63,8.64-1.87c2.5-1.25,4.46-3.02,5.87-5.3,1.42-2.29,2.13-4.93,2.13-7.94v-29.15h-8.26v2.59ZM96.69,307.3c-.61,1.16-1.48,2.06-2.6,2.7-1.12.63-2.47.95-4.03.95-1.44,0-2.74-.33-3.91-.98-1.16-.66-2.06-1.57-2.7-2.73-.63-1.16-.95-2.49-.95-3.97s.33-2.74.98-3.91c.66-1.16,1.55-2.07,2.67-2.73,1.12-.66,2.44-.98,3.97-.98s2.79.33,3.94.98c1.14.66,2.02,1.57,2.64,2.73.61,1.16.92,2.49.92,3.97s-.31,2.81-.92,3.97Z"/>
    <path class="cls-2" d="M136.35,291.65c-.85-.88-1.84-1.64-2.98-2.22-1.74-.89-3.68-1.33-5.84-1.33-2.84,0-5.37.7-7.59,2.1s-3.97,3.3-5.24,5.72c-1.27,2.41-1.9,5.14-1.9,8.19s.63,5.72,1.9,8.13c1.27,2.41,3.02,4.32,5.24,5.72,2.22,1.4,4.73,2.1,7.53,2.1,2.2,0,4.18-.44,5.94-1.33,1.14-.58,2.12-1.32,2.95-2.19v2.89h8.38v-30.67h-8.38v2.92ZM134.7,310c-1.44,1.57-3.32,2.35-5.65,2.35-1.48,0-2.82-.36-4-1.08-1.19-.72-2.11-1.69-2.76-2.92-.66-1.23-.98-2.67-.98-4.32s.33-3.03.98-4.25c.66-1.23,1.57-2.2,2.73-2.92,1.16-.72,2.51-1.08,4.03-1.08s2.92.35,4.06,1.05,2.05,1.68,2.73,2.95c.68,1.27,1.02,2.71,1.02,4.32,0,2.37-.72,4.34-2.16,5.91Z"/>
    <path class="cls-2" d="M175.09,291.32c-.78-.76-1.68-1.41-2.73-1.93-1.78-.87-3.79-1.3-6.03-1.3-2.75,0-5.23.67-7.43,2-2.2,1.33-3.93,3.14-5.18,5.43-1.25,2.29-1.87,4.87-1.87,7.75s.62,5.48,1.87,7.81c1.25,2.33,2.97,4.16,5.18,5.49,2.2,1.33,4.68,2,7.43,2,2.24,0,4.24-.44,6-1.33,1.03-.52,1.92-1.17,2.7-1.92v2.68c0,2.24-.76,4.03-2.29,5.37-1.52,1.33-3.56,2-6.1,2-2.07,0-3.84-.37-5.3-1.11-1.46-.74-2.78-1.81-3.97-3.21l-5.33,5.27c1.52,2.12,3.52,3.76,6,4.92,2.48,1.16,5.37,1.75,8.67,1.75s6.14-.63,8.64-1.87c2.5-1.25,4.46-3.02,5.87-5.3,1.42-2.29,2.13-4.93,2.13-7.94v-29.15h-8.26v2.59ZM174.55,307.3c-.61,1.16-1.48,2.06-2.6,2.7-1.12.63-2.47.95-4.03.95-1.44,0-2.74-.33-3.91-.98-1.16-.66-2.06-1.57-2.7-2.73-.63-1.16-.95-2.49-.95-3.97s.33-2.74.98-3.91c.66-1.16,1.54-2.07,2.67-2.73,1.12-.66,2.44-.98,3.97-.98s2.79.33,3.94.98c1.14.66,2.02,1.57,2.64,2.73.61,1.16.92,2.49.92,3.97s-.31,2.81-.92,3.97Z"/>
    <path class="cls-2" d="M214.21,291.65c-.85-.88-1.84-1.64-2.98-2.22-1.74-.89-3.68-1.33-5.84-1.33-2.84,0-5.37.7-7.59,2.1s-3.97,3.3-5.24,5.72c-1.27,2.41-1.91,5.14-1.91,8.19s.63,5.72,1.91,8.13c1.27,2.41,3.02,4.32,5.24,5.72,2.22,1.4,4.73,2.1,7.53,2.1,2.2,0,4.18-.44,5.94-1.33,1.14-.58,2.12-1.32,2.95-2.19v2.89h8.38v-30.67h-8.38v2.92ZM212.56,310c-1.44,1.57-3.32,2.35-5.65,2.35-1.48,0-2.82-.36-4-1.08-1.19-.72-2.11-1.69-2.76-2.92-.66-1.23-.98-2.67-.98-4.32s.33-3.03.98-4.25c.66-1.23,1.57-2.2,2.73-2.92,1.16-.72,2.51-1.08,4.03-1.08s2.92.35,4.06,1.05c1.14.7,2.05,1.68,2.73,2.95.68,1.27,1.02,2.71,1.02,4.32,0,2.37-.72,4.34-2.16,5.91Z"/>
    <path class="cls-2" d="M239.99,295.65c.63-.38,1.59-.57,2.86-.57s2.55.27,3.72.79c1.16.53,2.21,1.34,3.14,2.45l5.02-5.08c-1.36-1.78-3.06-3.1-5.11-3.97-2.05-.87-4.35-1.3-6.89-1.3s-4.51.39-6.29,1.17c-1.78.78-3.15,1.91-4.13,3.37-.97,1.46-1.46,3.16-1.46,5.11s.38,3.39,1.14,4.57c.76,1.19,1.72,2.11,2.89,2.76,1.16.66,2.4,1.18,3.71,1.56,1.31.38,2.55.74,3.72,1.08,1.16.34,2.13.73,2.89,1.17.76.44,1.14,1.09,1.14,1.94,0,.72-.36,1.28-1.08,1.68-.72.4-1.76.6-3.11.6-1.65,0-3.18-.3-4.57-.89-1.4-.59-2.6-1.5-3.62-2.73l-5.02,5.02c1.02,1.19,2.22,2.21,3.62,3.08,1.4.87,2.93,1.52,4.6,1.97,1.67.44,3.4.67,5.18.67,3.68,0,6.6-.88,8.76-2.64,2.16-1.76,3.24-4.14,3.24-7.14,0-1.86-.37-3.39-1.11-4.57-.74-1.18-1.69-2.14-2.86-2.86-1.16-.72-2.39-1.28-3.68-1.68-1.29-.4-2.53-.77-3.71-1.11-1.19-.34-2.14-.71-2.86-1.11-.72-.4-1.08-.98-1.08-1.75,0-.68.32-1.21.95-1.59Z"/>
    <path class="cls-2" d="M272.22,296.89c1.21-.7,2.57-1.05,4.1-1.05,1.35,0,2.59.23,3.71.7,1.12.47,2.06,1.16,2.83,2.1l5.46-5.46c-1.52-1.69-3.3-2.97-5.33-3.84-2.03-.87-4.25-1.3-6.67-1.3-3.13,0-5.95.7-8.45,2.1-2.5,1.4-4.47,3.31-5.91,5.75-1.44,2.43-2.16,5.18-2.16,8.22s.72,5.66,2.16,8.1c1.44,2.43,3.41,4.36,5.91,5.78,2.5,1.42,5.29,2.13,8.38,2.13,2.45,0,4.71-.46,6.76-1.37,2.05-.91,3.82-2.21,5.3-3.91l-5.33-5.4c-.85.93-1.82,1.64-2.92,2.13-1.1.49-2.35.73-3.75.73-1.52,0-2.89-.36-4.1-1.08-1.21-.72-2.15-1.69-2.83-2.92-.68-1.23-1.02-2.65-1.02-4.26s.34-3.03,1.02-4.25c.68-1.23,1.62-2.19,2.83-2.89Z"/>
    <path class="cls-2" d="M316.83,290c-2.29-1.31-4.87-1.97-7.75-1.97-3.05,0-5.8.7-8.26,2.1-2.46,1.4-4.39,3.3-5.81,5.72-1.42,2.41-2.13,5.14-2.13,8.19s.72,5.84,2.16,8.26c1.44,2.41,3.42,4.32,5.94,5.72,2.52,1.4,5.39,2.1,8.61,2.1,2.5,0,4.8-.44,6.92-1.33,2.12-.89,3.96-2.22,5.53-4l-4.95-4.95c-.93,1.1-2.03,1.91-3.3,2.41-1.27.51-2.69.76-4.25.76-1.74,0-3.26-.36-4.57-1.08-1.31-.72-2.32-1.77-3.02-3.14-.28-.54-.48-1.14-.65-1.75l22.4-.06c.17-.68.27-1.3.32-1.87.04-.57.06-1.13.06-1.68,0-2.96-.63-5.61-1.9-7.94-1.27-2.33-3.05-4.15-5.33-5.46ZM304.71,296.1c1.23-.72,2.67-1.08,4.32-1.08,1.57,0,2.88.32,3.94.95,1.06.64,1.88,1.57,2.48,2.79.28.59.5,1.25.66,1.98l-14.8.04c.15-.57.34-1.11.58-1.61.66-1.33,1.6-2.36,2.83-3.08Z"/>
    <path class="cls-2" d="M351.48,288.82c-1.16-.49-2.51-.73-4.03-.73-3.43,0-6.06,1.09-7.87,3.27-.02.03-.04.06-.06.08v-2.72h-8.32v30.67h8.32v-16.89c0-2.33.56-4.04,1.68-5.14,1.12-1.1,2.57-1.65,4.35-1.65.85,0,1.6.12,2.25.35.66.23,1.22.62,1.68,1.17l5.21-6.03c-.97-1.1-2.04-1.89-3.21-2.38Z"/>
    <path class="cls-2" d="M363.7,274.25c-1.36,0-2.48.47-3.37,1.4-.89.93-1.33,2.05-1.33,3.37s.44,2.49,1.33,3.4,2.01,1.37,3.37,1.37,2.53-.46,3.4-1.37c.87-.91,1.3-2.04,1.3-3.4s-.43-2.43-1.3-3.37c-.87-.93-2-1.4-3.4-1.4Z"/>
    <rect class="cls-2" x="359.45" y="288.73" width="8.45" height="30.67"/>
    <path class="cls-2" d="M398.82,288.73v2.92c-.85-.88-1.84-1.64-2.98-2.22-1.74-.89-3.68-1.33-5.84-1.33-2.84,0-5.37.7-7.59,2.1-2.22,1.4-3.97,3.3-5.24,5.72-1.27,2.41-1.91,5.14-1.91,8.19s.64,5.72,1.91,8.13c1.27,2.41,3.02,4.32,5.24,5.72,2.22,1.4,4.73,2.1,7.53,2.1,2.2,0,4.18-.44,5.94-1.33,1.14-.58,2.12-1.32,2.95-2.19v2.89h8.38v-30.67h-8.38ZM397.17,310c-1.44,1.57-3.32,2.35-5.65,2.35-1.48,0-2.82-.36-4-1.08-1.19-.72-2.11-1.69-2.76-2.92-.66-1.23-.98-2.67-.98-4.32s.33-3.03.98-4.25c.66-1.23,1.57-2.2,2.73-2.92,1.16-.72,2.51-1.08,4.03-1.08s2.92.35,4.06,1.05c1.14.7,2.05,1.68,2.73,2.95.68,1.27,1.02,2.71,1.02,4.32,0,2.37-.72,4.34-2.16,5.91Z"/>
    <g>
      <path class="cls-1" d="M320.94,73.91c23.65,0,42.81,19.17,42.81,42.81s-19.17,42.81-42.81,42.81-42.81-19.17-42.81-42.81,19.17-42.81,42.81-42.81"/>
      <path class="cls-1" d="M407.2,116.07l-19.37-10.95c-1.71,5.11-8.23,22.6-9.99,26.3-10.11,21.27-31.79,35.97-56.91,35.97s-45.83-14.05-56.22-34.56c-2.08-4.11-8.97-22.6-10.68-27.71l-19.37,10.95v.02c26.23,26.44,42.43,62.83,42.43,103.01,0,15.36-2.37,30.17-6.76,44.08h101.2c-4.39-13.91-6.76-28.72-6.76-44.08,0-40.18,16.2-76.58,42.43-103.01v-.02Z"/>
    </g>
  </g>
  <g>
    <path class="cls-2" d="M76.71,351.62c-.56,0-1.03-.19-1.4-.57-.37-.38-.56-.85-.56-1.41s.18-1.03.56-1.41c.37-.38.84-.57,1.4-.57s1.05.19,1.41.57c.36.38.54.85.54,1.41s-.18,1.03-.54,1.41c-.36.38-.83.57-1.41.57ZM75.06,368.68v-14.42h3.3v14.42h-3.3Z"/>
    <path class="cls-2" d="M97.53,356.92c-.48-.87-1.14-1.58-1.98-2.13-.84-.55-1.8-.83-2.88-.83s-2.02.25-2.87.74c-.57.33-1.02.77-1.43,1.26v-1.69h-3.3v14.42h3.3v-8.32c0-.64.14-1.21.42-1.71.28-.5.67-.89,1.17-1.17.5-.28,1.07-.42,1.71-.42.96,0,1.75.31,2.36.93.61.62.92,1.41.92,2.37v8.32h3.3v-9.04c0-.94-.24-1.85-.72-2.72Z"/>
    <path class="cls-2" d="M117.09,356.92c-.48-.87-1.14-1.58-1.98-2.13-.84-.55-1.8-.83-2.88-.83s-2.02.25-2.87.74c-.57.33-1.02.77-1.43,1.26v-1.69h-3.3v14.42h3.3v-8.32c0-.64.14-1.21.42-1.71.28-.5.67-.89,1.17-1.17.5-.28,1.07-.42,1.71-.42.96,0,1.75.31,2.36.93.61.62.92,1.41.92,2.37v8.32h3.3v-9.04c0-.94-.24-1.85-.72-2.72Z"/>
    <path class="cls-2" d="M130.79,368.99c-1.4,0-2.67-.34-3.82-1.01-1.14-.67-2.05-1.58-2.72-2.72-.67-1.14-1.01-2.41-1.01-3.82s.34-2.66,1.01-3.79c.67-1.12,1.58-2.02,2.72-2.69,1.14-.67,2.41-1.01,3.82-1.01s2.7.33,3.85.99c1.14.66,2.05,1.56,2.72,2.69.67,1.13,1.01,2.4,1.01,3.8s-.34,2.67-1.01,3.82c-.67,1.14-1.58,2.05-2.72,2.72-1.14.67-2.42,1.01-3.85,1.01ZM130.79,365.8c.82,0,1.55-.18,2.18-.56.63-.37,1.12-.89,1.47-1.55.35-.66.53-1.41.53-2.25s-.18-1.58-.54-2.22c-.36-.64-.85-1.15-1.47-1.52-.62-.37-1.34-.56-2.16-.56s-1.52.19-2.15.56c-.63.37-1.12.88-1.47,1.52-.35.64-.53,1.38-.53,2.22s.18,1.59.53,2.25c.35.66.84,1.18,1.47,1.55.63.37,1.35.56,2.15.56Z"/>
    <path class="cls-2" d="M148.96,368.68l-6.58-14.42h3.67l3.94,9.22,3.96-9.22h3.51l-6.58,14.42h-1.92Z"/>
    <path class="cls-2" d="M172.88,354.27v1.67c-.42-.5-.9-.94-1.49-1.26-.85-.47-1.83-.71-2.93-.71-1.3,0-2.48.34-3.53,1.01-1.05.67-1.88,1.57-2.49,2.7-.61,1.13-.92,2.41-.92,3.83s.3,2.67.92,3.8c.61,1.13,1.44,2.03,2.49,2.69,1.05.66,2.23.99,3.53.99,1.1,0,2.08-.24,2.94-.71.59-.32,1.06-.75,1.47-1.24v1.64h3.3v-14.42h-3.3ZM171.96,364.63c-.75.82-1.74,1.23-2.96,1.23-.8,0-1.51-.18-2.12-.56-.61-.37-1.09-.89-1.44-1.55-.35-.66-.53-1.42-.53-2.28s.18-1.62.53-2.28c.35-.66.83-1.18,1.44-1.55.61-.37,1.32-.56,2.12-.56s1.54.19,2.15.56c.61.37,1.09.89,1.43,1.55.34.66.51,1.42.51,2.28,0,1.28-.38,2.33-1.13,3.15Z"/>
    <polygon class="cls-2" points="191.8 354.27 188.35 354.27 188.35 348.26 185.04 348.26 185.04 354.27 181.59 354.27 181.59 357.27 185.04 357.27 185.04 368.68 188.35 368.68 188.35 357.27 191.8 357.27 191.8 354.27"/>
    <path class="cls-2" d="M198.89,351.62c-.56,0-1.03-.19-1.4-.57-.37-.38-.56-.85-.56-1.41s.18-1.03.56-1.41c.37-.38.84-.57,1.4-.57s1.05.19,1.41.57c.36.38.54.85.54,1.41s-.18,1.03-.54,1.41c-.36.38-.83.57-1.41.57ZM197.24,368.68v-14.42h3.3v14.42h-3.3Z"/>
    <path class="cls-2" d="M212.11,368.68l-6.58-14.42h3.67l3.94,9.22,3.96-9.22h3.51l-6.58,14.42h-1.92Z"/>
    <path class="cls-2" d="M232.27,368.99c-1.44,0-2.74-.33-3.89-.98-1.15-.65-2.06-1.55-2.73-2.69-.67-1.14-1.01-2.42-1.01-3.85s.33-2.7.99-3.83c.66-1.13,1.56-2.03,2.69-2.69,1.13-.66,2.39-.99,3.77-.99s2.53.31,3.56.93c1.03.62,1.84,1.47,2.43,2.55.59,1.08.89,2.31.89,3.7,0,.24-.02.49-.05.74-.03.25-.07.53-.14.83h-11.84v-2.7h10.12l-1.23,1.08c-.04-.88-.21-1.62-.51-2.22-.3-.6-.73-1.06-1.28-1.38-.55-.32-1.23-.48-2.03-.48-.84,0-1.57.18-2.19.54-.62.36-1.1.87-1.44,1.52-.34.65-.51,1.43-.51,2.33s.18,1.69.54,2.37c.36.68.87,1.21,1.53,1.58.66.37,1.42.56,2.28.56.74,0,1.43-.13,2.06-.39.63-.26,1.17-.64,1.61-1.14l2.1,2.13c-.7.82-1.55,1.44-2.55,1.86-1,.42-2.06.63-3.18.63Z"/>
    <path class="cls-2" d="M260.33,368.99c-1.44,0-2.74-.33-3.89-.98-1.15-.65-2.06-1.55-2.73-2.69-.67-1.14-1.01-2.42-1.01-3.85s.33-2.7.99-3.83c.66-1.13,1.56-2.03,2.69-2.69,1.13-.66,2.39-.99,3.77-.99s2.53.31,3.56.93c1.03.62,1.84,1.47,2.43,2.55.59,1.08.89,2.31.89,3.7,0,.24-.02.49-.05.74-.03.25-.07.53-.14.83h-11.84v-2.7h10.12l-1.23,1.08c-.04-.88-.21-1.62-.51-2.22-.3-.6-.73-1.06-1.28-1.38-.55-.32-1.23-.48-2.03-.48-.84,0-1.57.18-2.19.54-.62.36-1.1.87-1.44,1.52-.34.65-.51,1.43-.51,2.33s.18,1.69.54,2.37c.36.68.87,1.21,1.53,1.58.66.37,1.42.56,2.28.56.74,0,1.43-.13,2.06-.39.63-.26,1.17-.64,1.61-1.14l2.1,2.13c-.7.82-1.55,1.44-2.55,1.86-1,.42-2.06.63-3.18.63Z"/>
    <path class="cls-2" d="M283.13,347.05v8.88c-.42-.5-.9-.94-1.49-1.26-.85-.47-1.83-.71-2.93-.71-1.3,0-2.48.34-3.53,1.01-1.05.67-1.88,1.57-2.49,2.7-.61,1.13-.92,2.41-.92,3.83s.3,2.67.92,3.8c.61,1.13,1.44,2.03,2.49,2.69,1.05.66,2.23.99,3.53.99,1.1,0,2.08-.24,2.94-.71.59-.32,1.06-.75,1.47-1.24v1.64h3.3v-21.63h-3.3ZM282.83,363.76c-.34.66-.82,1.18-1.43,1.55-.61.37-1.33.56-2.15.56s-1.51-.18-2.12-.56c-.61-.37-1.09-.89-1.44-1.55-.35-.66-.53-1.42-.53-2.28s.18-1.62.53-2.28c.35-.66.83-1.18,1.44-1.55.61-.37,1.32-.56,2.12-.56s1.54.19,2.15.56c.61.37,1.09.89,1.43,1.55.34.66.51,1.42.51,2.28s-.17,1.62-.51,2.28Z"/>
    <path class="cls-2" d="M299.02,368.99c-1.22,0-2.31-.27-3.26-.81-.95-.54-1.69-1.29-2.22-2.24-.53-.95-.8-2.05-.8-3.29v-8.38h3.3v8.23c0,.7.11,1.3.35,1.79.23.49.57.87,1.02,1.13.45.26.99.39,1.61.39.96,0,1.7-.28,2.21-.86.51-.57.77-1.39.77-2.45v-8.23h3.3v8.38c0,1.26-.27,2.37-.8,3.32-.53.95-1.27,1.69-2.21,2.22-.94.53-2.03.8-3.27.8Z"/>
    <path class="cls-2" d="M318.28,368.99c-1.42,0-2.71-.33-3.86-.99-1.15-.66-2.06-1.56-2.72-2.7-.66-1.14-.99-2.41-.99-3.82s.33-2.7.99-3.83c.66-1.13,1.57-2.03,2.72-2.69,1.15-.66,2.44-.99,3.86-.99,1.12,0,2.17.22,3.14.65.97.43,1.8,1.05,2.48,1.85l-2.16,2.19c-.42-.5-.93-.88-1.52-1.13-.59-.25-1.24-.38-1.94-.38-.82,0-1.55.19-2.18.56-.63.37-1.12.88-1.47,1.52-.35.64-.53,1.39-.53,2.25s.18,1.59.53,2.24c.35.65.84,1.16,1.47,1.53.63.37,1.36.56,2.18.56.7,0,1.35-.12,1.94-.38.59-.25,1.1-.63,1.52-1.13l2.16,2.19c-.68.8-1.51,1.42-2.48,1.85-.97.43-2.02.65-3.14.65Z"/>
    <path class="cls-2" d="M339.73,354.27v1.67c-.42-.49-.9-.94-1.49-1.26-.85-.47-1.83-.71-2.93-.71-1.3,0-2.48.34-3.53,1.01-1.05.67-1.88,1.57-2.49,2.7-.61,1.13-.92,2.41-.92,3.83s.3,2.67.92,3.8c.61,1.13,1.44,2.03,2.49,2.69,1.05.66,2.23.99,3.53.99,1.1,0,2.08-.24,2.94-.71.59-.32,1.06-.75,1.47-1.24v1.64h3.31v-14.42h-3.31ZM338.81,364.63c-.75.82-1.74,1.23-2.96,1.23-.8,0-1.51-.18-2.12-.56-.61-.37-1.09-.89-1.44-1.55-.35-.66-.53-1.42-.53-2.28s.18-1.62.53-2.28c.35-.66.83-1.18,1.44-1.55.61-.37,1.32-.56,2.12-.56s1.54.19,2.15.56c.61.37,1.09.89,1.43,1.55.34.66.51,1.42.51,2.28,0,1.28-.37,2.33-1.13,3.15Z"/>
    <polygon class="cls-2" points="358.66 354.27 355.2 354.27 355.2 348.26 351.9 348.26 351.9 354.27 348.44 354.27 348.44 357.27 351.9 357.27 351.9 368.68 355.2 368.68 355.2 357.27 358.66 357.27 358.66 354.27"/>
    <path class="cls-2" d="M365.74,351.62c-.56,0-1.03-.19-1.4-.57-.37-.38-.56-.85-.56-1.41s.18-1.03.56-1.41c.37-.38.84-.57,1.4-.57s1.05.19,1.41.57c.36.38.54.85.54,1.41s-.18,1.03-.54,1.41c-.36.38-.83.57-1.41.57ZM364.09,368.68v-14.42h3.3v14.42h-3.3Z"/>
    <path class="cls-2" d="M380.71,368.99c-1.4,0-2.67-.34-3.82-1.01-1.14-.67-2.05-1.58-2.72-2.72-.67-1.14-1.01-2.41-1.01-3.82s.34-2.66,1.01-3.79c.67-1.12,1.58-2.02,2.72-2.69,1.14-.67,2.41-1.01,3.82-1.01s2.7.33,3.85.99c1.14.66,2.05,1.56,2.72,2.69.67,1.13,1.01,2.4,1.01,3.8s-.34,2.67-1.01,3.82c-.67,1.14-1.58,2.05-2.72,2.72-1.14.67-2.42,1.01-3.85,1.01ZM380.71,365.8c.82,0,1.55-.18,2.18-.56.63-.37,1.12-.89,1.47-1.55.35-.66.53-1.41.53-2.25s-.18-1.58-.54-2.22c-.36-.64-.85-1.15-1.47-1.52-.62-.37-1.34-.56-2.16-.56s-1.52.19-2.15.56c-.63.37-1.12.88-1.47,1.52-.35.64-.53,1.38-.53,2.22s.17,1.59.53,2.25c.35.66.84,1.18,1.47,1.55.63.37,1.35.56,2.15.56Z"/>
    <path class="cls-2" d="M406.48,356.92c-.48-.87-1.14-1.58-1.98-2.13-.84-.55-1.8-.83-2.88-.83s-2.02.25-2.87.74c-.57.33-1.02.77-1.43,1.26v-1.69h-3.3v14.42h3.3v-8.32c0-.64.14-1.21.42-1.71.28-.5.67-.89,1.17-1.17.5-.28,1.07-.42,1.71-.42.96,0,1.75.31,2.36.93.61.62.92,1.41.92,2.37v8.32h3.31v-9.04c0-.94-.24-1.85-.72-2.72Z"/>
  </g>
</svg>